<?xml version="1.0" encoding="UTF-8"?>
<svg id="Layer_3" data-name="Layer 3" xmlns="http://www.w3.org/2000/svg" viewBox="0 0 189.37 68.14">
  <g>
    <path d="m50.44,55.84s-1.05,8.23-8.37,7.45c0,0-13.95-1.39-17.19.05-3.24,1.44,19.42-10.27,30.52-39.5-.33.66-19.71,38.86-53.63,44.32.35-.1,11.71-3.34,16.95-9.61,0,0-.87-12.5,5.2-20.81,0,0,.29,5.25,3.35,9.61,0,0,3.02-11.2,3.19-14.15,0,0,21.55-1.51,26.49-30.44,0,0,12.18,30.97-11.17,54.9,0,0,1.16,1.41,4.67-1.83Z" fill="#f4f4f5"/>
    <path d="m50.03-.02c-1.58,1.76-2.71,3.93-3.27,6.24-.2.81-.32,1.64-.5,2.46-.67,3.07-2.09,5.96-4.1,8.35,2.39-.46,4.59-1.86,6.05-3.84,1.46-1.98,2.07-4.52,1.84-6.98V-.02Z" fill="#f4f4f5"/>
  </g>
  <g>
    <path d="m84.85,35.22c0,5.84,3.29,8.74,7.91,8.74s6.89-2.59,7.17-5.6h-7.68v-5.56h13.63v16.65h-5.44l-.35-2.62c-1.57,1.84-4.7,3.05-8.15,3.05-8.11,0-13.79-5.95-13.79-14.84s5.84-15.04,14.81-15.04c6.93,0,12.26,4.07,12.93,10.34h-6.66c-.74-3.06-3.41-4.39-6.42-4.39-5.25,0-7.95,3.68-7.95,9.28Z" fill="#f4f4f5"/>
    <path d="m110.39,49.44v-29.53h6.03v29.53h-6.03Z" fill="#f4f4f5"/>
    <path d="m119.41,53.79h3.33c2.04,0,2.9-.63,3.68-2.74l.35-.94-7.87-20.25h6.46l4.27,12.57,4.74-12.57h6.27l-9.95,23.85c-1.64,4-3.84,5.68-7.29,5.68-1.45,0-2.82-.2-4-.55v-5.05Z" fill="#f4f4f5"/>
    <path d="m143.11,29.85h5.68l.31,2.39c1.1-1.8,3.56-3.02,6.35-3.02,5.44,0,9.24,3.8,9.24,10.11s-3.37,10.65-9.21,10.65c-2.7,0-5.21-1.02-6.35-2.51v11.36h-6.03v-28.99Zm10.85,14.69c2.86,0,4.66-2,4.66-4.9s-1.8-4.9-4.66-4.9-4.78,1.96-4.78,4.9,1.96,4.9,4.78,4.9Z" fill="#f4f4f5"/>
    <path d="m168.18,49.44v-29.53h6.07v11.99c1.21-1.68,3.45-2.66,5.99-2.66,4.66,0,7.36,2.98,7.36,8.11v12.1h-6.03v-10.65c0-2.47-1.37-4.07-3.45-4.07-2.39,0-3.92,1.57-3.92,4v10.73h-6.03Z" fill="#f4f4f5"/>
  </g>
</svg>