<?xml version="1.0" encoding="UTF-8"?>
<svg id="Layer_3" data-name="Layer 3" xmlns="http://www.w3.org/2000/svg" viewBox="0 0 500 500">
  <path d="m387.97,404.05s-7.41,58.28-59.22,52.71c0,0-98.74-9.81-121.65.37-22.91,10.2,137.43-72.68,215.98-279.55-2.37,4.68-139.51,275.01-379.56,313.65,2.49-.7,82.9-23.63,119.95-67.99,0,0-6.15-88.45,36.81-147.28,0,0,2.04,37.14,23.73,68.01,0,0,21.36-79.27,22.56-100.14,0,0,152.54-10.7,187.45-215.4,0,0,86.2,219.17-79.08,388.56,0,0,8.18,10,33.03-12.95Z" fill="#ccccce"/>
  <path d="m385.11,8.76c-11.17,12.44-19.21,27.78-23.16,44.17-1.38,5.75-2.27,11.61-3.53,17.38-4.73,21.72-14.81,42.21-29.05,59.07,16.89-3.27,32.47-13.17,42.8-27.19,10.33-14.02,14.65-31.97,13.03-49.43l-.09-44.01Z" fill="#ccccce"/>
</svg>