<?xml version="1.0" encoding="UTF-8"?>
<svg id="Layer_3" data-name="Layer 3" xmlns="http://www.w3.org/2000/svg" viewBox="0 0 189.37 68.14">
  <g>
    <path d="m50.3,53.56s-.94,7.37-7.49,6.67c0,0-12.49-1.24-15.39.05-2.9,1.29,17.38-9.19,27.32-35.36-.3.59-17.64,34.78-48.01,39.67.31-.09,10.48-2.99,15.17-8.6,0,0-.78-11.19,4.66-18.63,0,0,.26,4.7,3,8.6,0,0,2.7-10.03,2.85-12.67,0,0,19.29-1.35,23.71-27.24,0,0,10.9,27.72-10,49.14,0,0,1.03,1.26,4.18-1.64Z" fill="#f4f4f5"/>
    <path d="m49.94,3.56c-1.41,1.57-2.43,3.51-2.93,5.59-.17.73-.29,1.47-.45,2.2-.6,2.75-1.87,5.34-3.67,7.47,2.14-.41,4.11-1.67,5.41-3.44,1.31-1.77,1.85-4.04,1.65-6.25V3.56Z" fill="#f4f4f5"/>
  </g>
  <g>
    <path d="m83.13,31.84c0,6.38,3.68,9.87,8.97,9.87,4.97,0,7.99-2.74,7.99-7.32v-.12h-8.66v-4.43h13.32v16.1h-4.23l-.31-3.29c-1.57,2.19-4.82,3.72-8.7,3.72-8.03,0-13.63-5.84-13.63-14.65s5.68-14.88,14.3-14.88c6.54,0,11.59,3.8,12.42,9.64h-5.29c-.9-3.37-3.8-4.94-7.25-4.94-5.68,0-8.93,4.11-8.93,10.3Z" fill="#f4f4f5"/>
    <path d="m109.54,45.94v-29.14h4.74v29.14h-4.74Z" fill="#f4f4f5"/>
    <path d="m117.61,50.92h2.86c1.88,0,3.06-.43,3.88-2.7l.55-1.45-7.79-20.17h5.05l4.97,14.1,5.25-14.1h4.94l-9.48,23.66c-1.45,3.6-3.49,5.09-6.66,5.09-1.33,0-2.51-.16-3.56-.43v-4Z" fill="#f4f4f5"/>
    <path d="m140.02,26.59h4.43l.31,2.94c1.17-2.23,3.72-3.53,6.66-3.53,5.44,0,9.05,3.96,9.05,10.03s-3.29,10.42-9.05,10.42c-2.9,0-5.41-1.14-6.62-3.09v11.55h-4.78v-28.32Zm10.26,15.55c3.37,0,5.37-2.43,5.37-5.88s-2-5.92-5.37-5.92-5.45,2.43-5.45,5.92,2.15,5.88,5.45,5.88Z" fill="#f4f4f5"/>
    <path d="m164.27,45.94v-29.14h4.82v12.3c1.21-1.88,3.49-3.09,6.27-3.09,4.78,0,7.29,3.02,7.29,8.03v11.91h-4.78v-10.77c0-3.25-1.61-4.82-4.03-4.82-3.02,0-4.78,2.12-4.78,5.01v10.58h-4.78Z" fill="#f4f4f5"/>
  </g>
</svg>